<svg xmlns="http://www.w3.org/2000/svg" viewBox="0 0 308.81 521.81"><defs><style>.cls-1,.cls-5{fill:#fff;}.cls-1{stroke:#3d57a7;stroke-miterlimit:10;stroke-width:2.37px;}.cls-2,.cls-3,.cls-9{fill:#3d57a7;}.cls-3{font-size:24.98px;font-family:FreightMicroProBold-Regular, FreightMicro Pro;}.cls-4{letter-spacing:-0.02em;}.cls-5,.cls-9{font-size:18.94px;font-family:FreightMacroProLight-Italic, FreightMacro Pro;font-style:italic;}.cls-6{letter-spacing:0.02em;}.cls-7{letter-spacing:-0.02em;}.cls-8{letter-spacing:0em;}.cls-10{letter-spacing:-0.03em;}.cls-11{letter-spacing:0.01em;}.cls-12{letter-spacing:0em;}.cls-13{letter-spacing:0.02em;}.cls-14{letter-spacing:0.01em;}.cls-15{letter-spacing:-0.01em;}.cls-16{letter-spacing:-0.02em;}.cls-17{letter-spacing:0.01em;}.cls-18{letter-spacing:-0.1em;}.cls-19{letter-spacing:0.03em;}.cls-20{letter-spacing:-0.04em;}</style></defs><g id="Layer_2" data-name="Layer 2"><g id="Layer_1-2" data-name="Layer 1"><rect class="cls-1" x="1.19" y="1.19" width="306.43" height="519.44" rx="12"/><path class="cls-2" d="M104.28,34.81A21.41,21.41,0,1,1,82.83,56.19,21.44,21.44,0,0,1,104.28,34.81ZM101.13,46a36.78,36.78,0,0,0-6.12.48c-1.4.25-2.79.55-4.16.92A2,2,0,0,0,89.49,50,2,2,0,0,0,92,51.32a32.41,32.41,0,0,1,8.7-1.17,36,36,0,0,1,3.89.17c1.42.14,2.85.31,4.25.58A25.27,25.27,0,0,1,117,53.84a1.88,1.88,0,0,0,1.46.18A1.93,1.93,0,0,0,120,52.18a1.89,1.89,0,0,0-1-1.89A28.22,28.22,0,0,0,116.45,49a36.09,36.09,0,0,0-11.61-2.76C103.6,46.11,102.36,46.1,101.13,46Zm-.71,7.41c-.35,0-1,0-1.6.08-1.37.14-2.74.28-4.1.5a21.9,21.9,0,0,0-2.63.64,1.67,1.67,0,0,0-1.19,2,1.71,1.71,0,0,0,2.28,1.21,25.49,25.49,0,0,1,6.13-1,29.72,29.72,0,0,1,3.13.05,28.69,28.69,0,0,1,3.08.32,25.1,25.1,0,0,1,9,3.17,1.81,1.81,0,0,0,1,.23,1.7,1.7,0,0,0,.7-3.18c-.81-.46-1.63-.93-2.47-1.31A31.66,31.66,0,0,0,100.42,53.45Zm12.54,13a1.47,1.47,0,0,0,1.35-1.09,1.35,1.35,0,0,0-.64-1.52,23.4,23.4,0,0,0-11.45-3.34,29.52,29.52,0,0,0-5.79.3c-1.23.21-2.46.43-3.67.69a1.31,1.31,0,0,0-1,1.66,1.36,1.36,0,0,0,1.61,1,34.5,34.5,0,0,1,6-.86,26.58,26.58,0,0,1,5.42.23,20.57,20.57,0,0,1,7.44,2.67A4.59,4.59,0,0,0,113,66.43Z"/><path class="cls-2" d="M213.38,61.54l.19-.47c1.1-3.15,2.21-6.3,3.3-9.45a.48.48,0,0,1,.53-.38h3c.43,0,.51.12.35.52q-2.62,6.81-5.27,13.6a28.59,28.59,0,0,1-1.25,2.83,4.1,4.1,0,0,1-2.86,2.29,7,7,0,0,1-4.7-.72.28.28,0,0,1-.13-.43l1-2.24c.1-.23.22-.25.46-.17a9.39,9.39,0,0,0,1.45.46A1.87,1.87,0,0,0,211.51,66a.65.65,0,0,0-.09-.35l-3.63-8.7c-.3-.71-.59-1.42-.88-2.13a.42.42,0,0,0-.45-.31q-1.25,0-2.49,0c-.3,0-.36.1-.36.37q0,5.4,0,10.8c0,.45,0,.46-.47.46h-2.8c-.43,0-.45,0-.45-.45V55c0-.5,0-.5-.5-.5h-1c-.22,0-.32-.08-.32-.31q0-1.34,0-2.67c0-.21.1-.3.3-.29.39,0,.78,0,1.17,0s.38-.09.37-.37a7.37,7.37,0,0,1,.31-2.6,3.77,3.77,0,0,1,3.16-2.63,8.73,8.73,0,0,1,3.7.23.41.41,0,0,1,.37.47c0,.81,0,1.62,0,2.43,0,.34-.09.41-.41.31a5.81,5.81,0,0,0-1.9-.3,1.45,1.45,0,0,0-1.5,1.33c0,.27,0,.53-.07.8s.1.34.36.34h4.77c.8,0,.7-.07,1,.67q1.77,4.62,3.56,9.25A3.66,3.66,0,0,0,213.38,61.54Z"/><path class="cls-2" d="M152.65,64.4v5.68c0,.39,0,.43-.42.43-1,0-1.95,0-2.92,0-.28,0-.38-.09-.38-.38q0-9.24,0-18.5c0-.37,0-.4.42-.4h2.89c.35,0,.41.06.41.41v1.43l.07,0,.3-.28a5.67,5.67,0,0,1,3.7-1.85,6.8,6.8,0,0,1,6.93,4.21,9.55,9.55,0,0,1,.58,4.73,7.45,7.45,0,0,1-1.82,4.25,6.58,6.58,0,0,1-4.32,2.22,5.92,5.92,0,0,1-5.14-1.8,1.07,1.07,0,0,0-.16-.14S152.74,64.43,152.65,64.4Zm-.07-5.49a4.08,4.08,0,0,0,.58,2.17,3.74,3.74,0,0,0,3.45,2.06A3.56,3.56,0,0,0,160,61a5.11,5.11,0,0,0-.12-4.72,3.79,3.79,0,0,0-5.72-1.16A4.55,4.55,0,0,0,152.58,58.91Z"/><path class="cls-2" d="M140.46,66.45a12.24,12.24,0,0,1-8-3c-.28-.24-.29-.29-.05-.57.59-.7,1.19-1.4,1.78-2.12.19-.24.35-.24.58,0a9.7,9.7,0,0,0,3,1.84,7.12,7.12,0,0,0,4.08.32,2.15,2.15,0,0,0,1.87-1.75,1.75,1.75,0,0,0-.73-1.86,7.77,7.77,0,0,0-2.41-1c-1.23-.36-2.46-.68-3.68-1.07a7.29,7.29,0,0,1-1.57-.75,4.48,4.48,0,0,1-2.27-3.54,5.67,5.67,0,0,1,1.06-4.21,5.94,5.94,0,0,1,3.53-2.19,10.81,10.81,0,0,1,9.12,2.11c.21.16.21.31.06.51q-.82,1.14-1.62,2.28c-.17.24-.31.25-.53.08a9.45,9.45,0,0,0-3.55-1.68,5,5,0,0,0-2.88.09,2,2,0,0,0-1.37,2.47,1.61,1.61,0,0,0,1,1.11,19.89,19.89,0,0,0,2.45.88,27,27,0,0,1,3.74,1.17,6.64,6.64,0,0,1,2.36,1.62A4.55,4.55,0,0,1,147.54,60a5.76,5.76,0,0,1-.95,3.7,6,6,0,0,1-4,2.46C141.91,66.33,141.18,66.37,140.46,66.45Z"/><path class="cls-2" d="M173.2,66.48c-3.24-.16-5.81-1.57-7.15-4.7a7.69,7.69,0,0,1,5.67-10.66,7.81,7.81,0,0,1,7.68,2.52,7.14,7.14,0,0,1,1.82,4.17,7.56,7.56,0,0,1-2.25,6.4,7.64,7.64,0,0,1-4.54,2.17C174.05,66.43,173.67,66.44,173.2,66.48Zm.56-3.31a3.66,3.66,0,0,0,2.74-1.42,4.62,4.62,0,0,0,.62-5,4.14,4.14,0,0,0-7.11-.84,4.77,4.77,0,0,0-.81,3.5A4.31,4.31,0,0,0,173.76,63.17Z"/><path class="cls-2" d="M183.47,58.74c0-1.28,0-2.56,0-3.84,0-.32-.09-.42-.41-.4s-.73,0-1.1,0-.34-.08-.34-.32V51.58c0-.26.11-.35.35-.34s.76,0,1.14,0,.36-.08.36-.35c0-1,0-2.07,0-3.1,0-.5,0-.5.51-.5h2.83c.28,0,.38.09.38.37,0,1,0,2.07,0,3.11,0,.47,0,.47.46.47h3c.38,0,.41,0,.41.4V54.1c0,.38,0,.41-.4.41H187.5c-.24,0-.33.07-.32.32v6.73A1.32,1.32,0,0,0,188.64,63a4.26,4.26,0,0,0,2-.41c.26-.12.37,0,.38.23,0,.84,0,1.68,0,2.52a.49.49,0,0,1-.23.35,6.19,6.19,0,0,1-3.71.66,4.25,4.25,0,0,1-2.2-.79,3.32,3.32,0,0,1-1.3-2.45c-.1-1.29-.07-2.58-.09-3.87C183.46,59.07,183.47,58.9,183.47,58.74Z"/><path class="cls-2" d="M196.42,58.68v7c0,.42,0,.44-.43.44-1,0-1.93,0-2.89,0-.3,0-.4-.09-.4-.39q0-7.05,0-14.11c0-.37,0-.4.41-.4H196c.37,0,.41,0,.41.41Z"/><path class="cls-2" d="M196.91,47a2.32,2.32,0,0,1-2.33,2.34,2.34,2.34,0,1,1,0-4.68A2.32,2.32,0,0,1,196.91,47Z"/><path class="cls-2" d="M223.66,55.81a2.23,2.23,0,0,1-2.28-2.26,2.3,2.3,0,0,1,4.59,0A2.29,2.29,0,0,1,223.66,55.81Zm0-.14a2.15,2.15,0,1,0-2.11-2.15A2.15,2.15,0,0,0,223.64,55.67Z"/><path class="cls-2" d="M224.18,53.78l.57.82a.46.46,0,0,1-.62-.22c-.08-.14-.2-.26-.28-.4a.42.42,0,0,0-.56-.17c-.09,0-.1.25-.15.38s.13.45-.21.44-.17-.29-.17-.44c0-.54,0-1.08,0-1.62,0-.21.06-.3.28-.29h.86a.78.78,0,0,1,.81.52.74.74,0,0,1-.41.89Zm-.56-.29v0a2.1,2.1,0,0,0,.36,0,.4.4,0,0,0,.22-.67,1.37,1.37,0,0,0-1-.13s-.07.06-.07.09a1.7,1.7,0,0,0,0,.64C223.22,53.44,223.47,53.45,223.62,53.49Z"/><text class="cls-3" transform="translate(20.77 149.2)">Fluctua NF<tspan class="cls-4" x="132.05" y="0">T</tspan><tspan x="148.86" y="0">s</tspan></text><rect class="cls-2" x="21.13" y="422.08" width="266.55" height="26.71" rx="13.36"/><text class="cls-5" transform="translate(132.3 439.94)">a<tspan class="cls-6" x="9.9" y="0">g</tspan><tspan class="cls-7" x="19.45" y="0">r</tspan><tspan class="cls-8" x="27.06" y="0">ee</tspan></text><text class="cls-9" transform="translate(129.12 477.93)">cancel</text><text class="cls-9" transform="translate(20.62 189.8)"><tspan class="cls-10">y</tspan><tspan x="8.79" y="0">ou a</tspan><tspan class="cls-6" x="42.66" y="0">g</tspan><tspan class="cls-7" x="52.21" y="0">r</tspan><tspan x="59.82" y="0">ee</tspan><tspan class="cls-10" x="76.97" y="0"> </tspan><tspan x="81.06" y="0">that </tspan><tspan class="cls-11" x="118.21" y="0">F</tspan><tspan class="cls-12" x="128.93" y="0">luc</tspan><tspan class="cls-13" x="152.52" y="0">t</tspan><tspan x="159.25" y="0">ua NFTs can:</tspan><tspan class="cls-14" x="0" y="45.45">v</tspan><tspan class="cls-12" x="9.11" y="45.45">iew</tspan><tspan class="cls-10" x="35.54" y="45.45" xml:space="preserve"> y</tspan><tspan x="48.42" y="45.45">our account</tspan><tspan x="0" y="90.89">add and </tspan><tspan class="cls-7" x="69.17" y="90.89">r</tspan><tspan class="cls-6" x="76.78" y="90.89">e</tspan><tspan x="85.65" y="90.89">mo</tspan><tspan class="cls-15" x="109.62" y="90.89">v</tspan><tspan x="118.25" y="90.89">e i</tspan><tspan class="cls-16" x="136.47" y="90.89">t</tspan><tspan class="cls-14" x="142.43" y="90.89">e</tspan><tspan x="151.29" y="90.89">ms </tspan><tspan class="cls-17" x="178.37" y="90.89">i</tspan><tspan x="183.54" y="90.89">n</tspan><tspan class="cls-18" x="0" y="113.61">Y</tspan><tspan x="9.81" y="113.61">our Lib</tspan><tspan class="cls-7" x="66.43" y="113.61">r</tspan><tspan x="74.04" y="113.61">a</tspan><tspan class="cls-19" x="83.94" y="113.61">r</tspan><tspan class="cls-20" x="92.5" y="113.61">y</tspan></text></g></g></svg>