<svg xmlns="http://www.w3.org/2000/svg" viewBox="0 0 306.43 519.44"><defs><style>.cls-1{fill:#3d57a7;}.cls-2{font-size:24.98px;font-family:FreightMicroProBold-Regular, FreightMicro Pro;}.cls-2,.cls-4{fill:#fff;}.cls-3{letter-spacing:-0.07em;}.cls-4{stroke:#3d57a7;stroke-miterlimit:10;stroke-width:2.37px;}</style></defs><g id="Layer_2" data-name="Layer 2"><g id="Layer_1-2" data-name="Layer 1"><rect class="cls-1" width="306.43" height="519.44" rx="12"/><text class="cls-2" transform="translate(91.91 99.01)"><tspan class="cls-3">Y</tspan><tspan x="14.61" y="0">our NFT:</tspan></text><rect class="cls-4" x="12.72" y="124" width="281" height="281"/><path class="cls-1" d="M148.63,312.42l-.51,1.93c-.63,2.36-1.2,4.74-1.91,7.08a139,139,0,0,0-3.47,16.4q-1.61,9.24-3.33,18.45c-.29,1.58-.54,1.71-2.13,1.8s-1.69.09-2.24,1.69a42.25,42.25,0,0,1-6.33,12.28,22.54,22.54,0,0,1-7.89,6.39,23.12,23.12,0,0,1-3.71,1.43c-1,.31-1.3.07-1.3-1a46.3,46.3,0,0,1,.79-10q1.09-5,2.18-10.08c.08-.35.17-.7.25-1-.84-.36-1.65-.67-2.43-1a1.08,1.08,0,0,1-.64-1.25c.85-5.93,1.51-11.88,2.56-17.77,1.17-6.5,2.77-12.93,4-19.42,1.06-5.49,3-10.73,4.52-16.08,1.36-4.64,2.78-9.27,4.19-13.9.18-.6.41-1.19.63-1.78a1.42,1.42,0,0,1,1.26-1c.83-.08.41-.7.43-1.12s-.1-.61-.62-.63c-3.17-.13-6.34-.28-9.5-.47-2-.12-4.06-.27-6.08-.49a8.72,8.72,0,0,1-2.46-.62c-4.12-1.76-8.07-3.79-10.9-7.45a5.25,5.25,0,0,1-1-5.12,18.76,18.76,0,0,1,3.28-5.93,117.59,117.59,0,0,1,12.43-12.82c3.13-2.86,6.14-5.85,9.19-8.79a9.19,9.19,0,0,1,3.15-2.16,1.83,1.83,0,0,0,.42-.26c.27-.22.49-.58.79-.66,1.23-.33,2.48-.57,3.63-.83.66,1.27,1.7.57,2.56.93a11.63,11.63,0,0,0,0-1.69c0-.22-.33-.46-.56-.57-1.61-.78-3.25-1.52-4.86-2.29a32.51,32.51,0,0,1-8.19-5.86,45.14,45.14,0,0,1-7.57-9c-.08-.12-.17-.23-.23-.33a18.18,18.18,0,0,0-1.93,2,3.25,3.25,0,0,0-.28,1.53c-.19,1.78-.36,3.56-.57,5.34v-6.38a11.45,11.45,0,0,0-1.27.3.52.52,0,0,0-.27.41,17.19,17.19,0,0,0,1.28,6.29c.32.79.64,1.59.92,2.4a24.86,24.86,0,0,1-2.46-6.42,2.74,2.74,0,0,1,0-.28c-.13-.76,0-1.73-.44-2.21s-1.41-.5-2.21-.74a6.72,6.72,0,0,0,.35,5.09,27.58,27.58,0,0,1,1.28,2.89c-1.25-1.72-2.44-3.41-2.62-5.68a12.14,12.14,0,0,0-1.09-4.75,6.1,6.1,0,0,1,.32-6.36.88.88,0,0,0,.07-1c-.47-1-.89-2-1.39-3.11l-.42,3.61h0c.06-1.16,0-2.32.2-3.47a2.68,2.68,0,0,0-.57-2,10.09,10.09,0,0,1-1.74-7.29,8.89,8.89,0,0,0-.44-4.64,29.57,29.57,0,0,1-2-9.17c0-.06,0-.12-.09-.29-1.07,3.4-.22,6.52.72,9.67-.19-.35-.41-.7-.57-1.07a12.29,12.29,0,0,1-.9-8.41,10.94,10.94,0,0,0,.26-4.73,24.1,24.1,0,0,1,1.09-10.25,11.44,11.44,0,0,0,.49-2.21l-1.92,4.75-.09,0c.13-.51.23-1,.39-1.53a23.18,23.18,0,0,1,6.76-10.82,16.86,16.86,0,0,0,2.77-3.35c2.3-3.53,5.46-6.13,8.77-8.61a2.13,2.13,0,0,0,.58-.58,19.08,19.08,0,0,0-8,7c-.07-.11-.11-.16-.1-.17,2-3.24,4.15-6.19,7.79-7.85,2.68-1.23,5.31-2.56,8.1-3.56a14.06,14.06,0,0,0,2.57-1.41l-2.39.29c5.47-1.62,10.83-1.63,16,1.29l.07-.24-.95-.68-1-.7.15-.21,6,4.31,3.05-2.47.11.13-1.53,1.3.07.11,1.86-1,.05.1-.51.38,0,.08c.49-.14,1-.26,1.47-.44a15.53,15.53,0,0,1,7.16-.67c2.09.19,4.2.23,6.29.43a35.08,35.08,0,0,1,4.21.65c4.11.88,6.76,3.83,9.27,6.84a40.22,40.22,0,0,1,3,4.81,22.66,22.66,0,0,0,1.44,2.17,14.94,14.94,0,0,1,2.31,4.42c1,3,2.11,5.87,2.93,8.87a42.61,42.61,0,0,1,.88,5.87c.24,1.87.48,3.74.63,5.62.09,1.07,0,2.15,0,3.32-.14-1.36-.26-2.63-.39-3.91l-.22,0c.07.76.18,1.51.2,2.27,0,1.54.06,3.08.06,4.62a1.37,1.37,0,0,1-.15.55c-.07.14-.25.24-.3.39-.72,2.13-1.42,4.26-2.12,6.4-.91,2.76-1.72,5.55-1.32,8.53l-.38-1.74-.45,2h-.06c.18-1.42.35-2.83.53-4.25l-.27-.06c-.91,2-1.81,4-2.74,6.09a5.29,5.29,0,0,1,2.18,4.37,6.65,6.65,0,0,1-1.79,4.85,4.82,4.82,0,0,1-3.27,1.69.9.9,0,0,0-.91.84c-.13.86-.2,1.72-.28,2.59a12.82,12.82,0,0,1-.23,1.73l-.08-1.32-.28.79c-.27-1.83-.51-3.48-.75-5.14h-.22l-.37,2.14h-.17a9.2,9.2,0,0,1,0-1.39,2.16,2.16,0,0,0-.65-2.34l-5,6.65c.85,1,1.79,1.92,2.58,3a13.84,13.84,0,0,1,2.23,5.11,12.18,12.18,0,0,1,0,2,1.14,1.14,0,0,0,.42.84,3.78,3.78,0,0,1,1.55,2,14.75,14.75,0,0,0,1.34,3.12c.79,1.06.53,2.21.8,3.31.32,1.33.74,2.63,1.11,3.94a5.86,5.86,0,0,1,.21.85l-.61-1.15-.1,0,.29,1.31-.44-.58a.69.69,0,0,0-.07.2c.09.64.18,1.28.28,1.92a4.67,4.67,0,0,1-.62,2.64,2.1,2.1,0,0,0-.19,1.16,10.06,10.06,0,0,1-.09,4.6,1,1,0,0,0,.18.75c1.7,2,3.39,4.06,5.13,6,2.25,2.57,4.4,5.24,6.84,7.62a98.64,98.64,0,0,0,8.43,7.24,15.83,15.83,0,0,0,8.67,3c2.39.17,4.8.1,7.08,1,.81.33,1.64.59,2.42,1,.34.17.85.7.79.85a2,2,0,0,1-1,1.08,35.37,35.37,0,0,1-3.55.74,10.42,10.42,0,0,1,1.34.66,3,3,0,0,1,.63.7c-.25.2-.48.56-.75.58-1.17.08-2.35.07-3.53.07a3.08,3.08,0,0,0-.86,0,10,10,0,0,1,1.22.88,5,5,0,0,1,.64,1c-.41.14-.85.47-1.22.4-1.56-.3-3.11-.69-4.66-1.09-.85-.22-1.68-.53-2.72-.86.87,1.51,1.64,2.83,2.37,4.16.48.86.94,1.75,1.36,2.64.27.58,0,.94-.63.91a1.91,1.91,0,0,1-.63-.18c-2-.93-4-1.86-6-2.82-.57-.27-1.09-.63-1.64-.93-2.18-1.2-3.21-3.21-3.91-5.47a2.67,2.67,0,0,0-.33-.87A15.82,15.82,0,0,0,193,283.4c-4.43-3.22-8.81-6.49-13.22-9.75a1.1,1.1,0,0,0-.23-.09l-.1.76-.1-1a17,17,0,0,0-1.18,2.84,2.28,2.28,0,0,0,.58,1.55,15.76,15.76,0,0,1,2.2,4.83l-.53-1.07c0,2,1.87,1.82,2.7,2.77l-.29.24,1.62,1.12c-.28.48.48,1.22,3.38,3.18l-.61-.08.39.55a4.55,4.55,0,0,1,1,3.94c-.18.74-.31,1.49-.49,2.23a2.93,2.93,0,0,1-.3.81c-.22.42-.65.8-.7,1.22a4.42,4.42,0,0,0,.46,1.51c-.7-.24-1.34-.37-1.58-1-.56-1.49-1.1-3-1.55-4.51a7.42,7.42,0,0,0-2.81-4.19c-.79-.56-1.56-1.15-2.33-1.73a3.48,3.48,0,0,0-3.31-1.26,4.49,4.49,0,0,1-3.52-2.56,20.53,20.53,0,0,0-.79-2.19l.06,1.22a6.58,6.58,0,0,1-.56-3.64,2.67,2.67,0,0,0-.27-1.27,10.6,10.6,0,0,1-1.2-4,1.12,1.12,0,0,0-.2-.66l-.52,2.52a14.26,14.26,0,0,1,1.16-5.43,2.78,2.78,0,0,0-.09-2.41,4.63,4.63,0,0,1-.44-3,.75.75,0,0,0-.09-.61c-.64-.78-1.31-1.54-2-2.37a2.39,2.39,0,0,0-.11.42,39.17,39.17,0,0,1-.77,7.72c-.39,2.69-.83,5.37-1.11,8.06a2.24,2.24,0,0,1-1.9,2.1c-1.24.35-1.23.37-1.34,1.64,0,.53-.07,1.06-.12,1.59s.1.64.54.66a1.1,1.1,0,0,1,1.07.91c1.23,4,2.49,8.08,3.71,12.13.8,2.69,1.72,5.36,2.28,8.1a101.36,101.36,0,0,1,1.54,14.66c.18,3.26.55,6.51.79,9.77.17,2.35.3,4.7.36,7s0,4.89.05,7.34c0,1.3.16,2.61.19,3.91s0,2.61-.06,3.91a1.27,1.27,0,0,1-.49.74,3,3,0,0,1-.82.47c-1.34.63-1.36.63-1.13,2.13.77,4.95,1.61,9.89,2.32,14.85.28,2,.33,4,.43,5.94.06,1.35-.62,1.75-1.77,1.05a33.74,33.74,0,0,1-9.56-8.6c-1.64-2.16-3.2-4.39-4.64-6.68a32.09,32.09,0,0,1-2.08-4.39c-.2-.45-.37-.7-.93-.68-1.43.05-1.61-.11-1.73-1.5q-.91-11.16-1.8-22.31c-.53-6.78-1-13.57-1.54-20.36Zm-17.79-37a7.5,7.5,0,0,0-.12-1c-.67-2.48-1.32-5-2-7.41a13.92,13.92,0,0,1-.69-5.72c.1-.82.19-1.64.29-2.55-.91.73-1.76,1.38-2.57,2.06-2.11,1.78-4.25,3.53-6.3,5.37a19.14,19.14,0,0,0-2.27,2.64c-.63.81-.53,1.37.34,1.94a11.83,11.83,0,0,0,2,1.1c2,.76,3.94,1.5,5.94,2.14C127.19,274.5,129,274.9,130.84,275.41Zm33.67-45a1.68,1.68,0,0,0-.26.11l-7.2,5.62c-.11.09-.3.23-.28.29.26.74.35,1.85.87,2.12a9.9,9.9,0,0,0,3.48.81,10.82,10.82,0,0,0,2.36-.33c1.33-.19,1.57,0,1.58,1.31a1.08,1.08,0,0,0,.72,1.08,14,14,0,0,1,5.29,5.34c.3.51.66,1,1.13,1.66.23-.63.58-1.08.49-1.43-.26-1.09-.69-2.13-1.06-3.21v2a6.08,6.08,0,0,1-.35-2.43,3.31,3.31,0,0,0-1-2.71,15.74,15.74,0,0,1-2.42-4.49c-.5-1.5-1.77-2.4-2.38-3.77l.34,1.55-.21.06C165.25,232.83,164.89,231.65,164.51,230.43Zm15.43-12.72a4.58,4.58,0,0,0,4.5-3.46c.75-2.36.08-4.63-1.69-5.66-.73,1-1.44,1.95-2.91,2.08A14.11,14.11,0,0,1,179.94,217.71Zm-69.53-7-2.88-5.77c-.56,2.53.46,4.8.82,7.23Zm2.26,10.58a3.57,3.57,0,0,0,.94-.16c.28-.15.66-.39.71-.65.25-1.15.39-2.33.58-3.5a3.4,3.4,0,0,0-.6-2.82A31.58,31.58,0,0,0,112.67,221.26Zm-.83,0c.3-1.91.57-3.7.85-5.54-.35.52-.72,1-1,1.5-.53.88-1,1.78-1.5,2.69a.7.7,0,0,0,.13.65A14.78,14.78,0,0,0,111.84,221.25Zm74.62-21.55c1-2.71,2.16-5.38,2.29-8.51a14.27,14.27,0,0,1-.93,2.23A11.42,11.42,0,0,0,186.46,199.7Zm-10.58-51.11,5.81,7.12A18.53,18.53,0,0,0,175.88,148.59ZM106.2,205.77c0-1.25,0-2.5,0-3.75a1.49,1.49,0,0,0-.16-.69c-.24-.49-.53-1-.92-1.62C105.06,201.94,105.08,204,106.2,205.77Zm2.35,11.54a10.26,10.26,0,0,1,3.13-5l-.54-.57a2.2,2.2,0,0,0-.24-.15C109.82,213.37,108.69,215.13,108.55,217.31Zm6.48,2.94c1.4-.8,1.61-2,.56-3.28Zm74.71-43.36a13.6,13.6,0,0,0-1.26-5.92Zm-80.12,35.54A4.77,4.77,0,0,0,108,216C108.56,214.74,109.09,213.58,109.62,212.43Zm-3-6.66c.32-.9.76-1.81-.17-2.83Zm72.21,73.4-.32.15,1.23,2.57.24-.1Zm-74.28-79.33-.18,0,.16,3.44h.18C104.7,202.14,104.64,201,104.59,199.84Z"/></g></g></svg>