<svg xmlns="http://www.w3.org/2000/svg" viewBox="0 0 198.47 200.51"><defs><style>.cls-1{fill:#3d57a7;}</style></defs><g id="Layer_2" data-name="Layer 2"><g id="Layer_1-2" data-name="Layer 1"><path class="cls-1" d="M105.35.85c-73.68-12.13-140,109.22-85.09,105.56,120.43-8-50.1,78,71.94,93.4,54.63,6.9,102.42-38,106.05-92.9S159.68,9.8,105.35.85ZM168.17,55.3A13.41,13.41,0,1,1,154,67.92,13.4,13.4,0,0,1,168.17,55.3ZM55.42,52.1A13.41,13.41,0,1,1,42.8,38,13.41,13.41,0,0,1,55.42,52.1Zm1.29-22.44A13.41,13.41,0,1,1,69.33,43.82,13.41,13.41,0,0,1,56.71,29.66ZM99.3,163.72c-10.24,15.07-25.4,22.63-33.85,16.89s-7-22.62,3.26-37.7,25.4-22.63,33.85-16.88S109.55,148.65,99.3,163.72ZM120.1,26a13.41,13.41,0,1,1-12.63-14.16A13.41,13.41,0,0,1,120.1,26Zm8.66,13.57a13.42,13.42,0,1,1,12.63,14.16A13.42,13.42,0,0,1,128.76,39.6Zm27.66,125.78a13.42,13.42,0,1,1-12.63-14.16A13.43,13.43,0,0,1,156.42,165.38Zm23.33-27a13.41,13.41,0,1,1-12.62-14.16A13.4,13.4,0,0,1,179.75,138.39Zm9.87-32.84A13.41,13.41,0,0,1,162.84,104C163.48,92.76,169.6,91,177,91.39A13.41,13.41,0,0,1,189.62,105.55Z"/></g></g></svg>