<svg xmlns="http://www.w3.org/2000/svg" viewBox="0 0 208.44 214.23"><defs><style>.cls-1{fill:#3d57a7;}</style></defs><g id="Layer_2" data-name="Layer 2"><g id="Layer_1-2" data-name="Layer 1"><path class="cls-1" d="M189.74,18.7a64,64,0,0,0-90.38,0C80.61,37.43,74.82,67,84.12,96.21L.49,179.81A1.73,1.73,0,0,0,0,181.09l1.63,30.23h0a1.66,1.66,0,0,0,1.6,1.57l32.93,1.34h.08a1.71,1.71,0,0,0,1.19-.48l7-7a1.62,1.62,0,0,0,.49-1.09l.63-10.91,2.13-2.12,10.83-.57h0a1.62,1.62,0,0,0,1.1-.49L68,183.12a1.72,1.72,0,0,0,.46-1.51l-2.24-11.35,2.5-2.51,11.64,2h0a1.7,1.7,0,0,0,1.47-.46l7.9-7.9h0a1.71,1.71,0,0,0,.45-1.58l-2.54-11,27.95-27.94a63.92,63.92,0,0,0,74.11-102.2ZM157.33,51.09a10.53,10.53,0,1,1,7.43,3.07,10.51,10.51,0,0,1-7.43-3.07Z"/></g></g></svg>