<svg xmlns="http://www.w3.org/2000/svg" viewBox="0 0 134.77 269.49"><defs><style>.cls-1{fill:#3d57a7;}</style></defs><g id="Layer_2" data-name="Layer 2"><g id="Layer_1-2" data-name="Layer 1"><path class="cls-1" d="M54.42,193.13c-.19.73-.38,1.45-.58,2.18-.71,2.67-1.35,5.36-2.15,8a154.52,154.52,0,0,0-3.92,18.53Q46,232.28,44,242.69c-.33,1.78-.6,1.93-2.4,2s-1.91.1-2.54,1.91a47.4,47.4,0,0,1-7.15,13.88A25.66,25.66,0,0,1,23,267.73a27.4,27.4,0,0,1-4.2,1.62c-1.15.35-1.47.08-1.47-1.09a52.66,52.66,0,0,1,.9-11.35l2.46-11.39c.09-.4.19-.79.29-1.16-1-.4-1.87-.76-2.75-1.16a1.22,1.22,0,0,1-.72-1.42c.95-6.69,1.7-13.42,2.89-20.07,1.31-7.35,3.12-14.61,4.55-22,1.2-6.2,3.35-12.13,5.11-18.17,1.53-5.25,3.14-10.47,4.73-15.71.21-.68.46-1.34.71-2a1.63,1.63,0,0,1,1.42-1.19c.95-.09.47-.78.49-1.26s-.11-.69-.7-.72c-3.58-.13-7.16-.31-10.74-.52-2.29-.14-4.58-.31-6.86-.56a9.77,9.77,0,0,1-2.78-.69c-4.66-2-9.12-4.3-12.32-8.43a5.88,5.88,0,0,1-1.1-5.78,21,21,0,0,1,3.7-6.7,131.71,131.71,0,0,1,14.05-14.49c3.53-3.23,6.94-6.6,10.38-9.93a10.34,10.34,0,0,1,3.56-2.44,1.57,1.57,0,0,0,.47-.3c.31-.25.56-.65.89-.74,1.39-.37,2.8-.65,4.11-.94.75,1.44,1.92.64,2.9,1a13.12,13.12,0,0,0,0-1.91c0-.25-.37-.52-.63-.64-1.83-.89-3.67-1.72-5.5-2.59a36.65,36.65,0,0,1-9.24-6.62A51,51,0,0,1,19,88.33a4,4,0,0,0-.26-.37,22.12,22.12,0,0,0-2.18,2.27A3.8,3.8,0,0,0,16.25,92c-.21,2-.4,4-.65,6V90.78a13.84,13.84,0,0,0-1.43.34.6.6,0,0,0-.31.47,19.24,19.24,0,0,0,1.45,7.1c.36.9.72,1.8,1,2.72a28.24,28.24,0,0,1-2.78-7.25l-.06-.33c-.14-.85,0-2-.5-2.5s-1.59-.56-2.49-.82a7.54,7.54,0,0,0,.4,5.74,35.24,35.24,0,0,1,1.44,3.27c-1.41-1.94-2.75-3.85-3-6.42a13.73,13.73,0,0,0-1.23-5.36,6.92,6.92,0,0,1,.37-7.2,1,1,0,0,0,.07-1.11c-.53-1.1-1-2.23-1.58-3.52L6.56,80H6.5c.07-1.31.06-2.62.24-3.91a3,3,0,0,0-.65-2.25,11.4,11.4,0,0,1-2-8.23,10.13,10.13,0,0,0-.49-5.25A33.58,33.58,0,0,1,1.4,50a2.33,2.33,0,0,0-.1-.32C.09,53.5,1.05,57,2.11,60.59c-.22-.4-.46-.79-.64-1.2-1.29-3.07-2-6.21-1-9.51a12.34,12.34,0,0,0,.3-5.34A27.15,27.15,0,0,1,2,33a14.53,14.53,0,0,0,.56-2.49L.36,35.82l-.1,0c.15-.58.26-1.16.43-1.73A26.4,26.4,0,0,1,8.34,21.84a19,19,0,0,0,3.13-3.78c2.59-4,6.17-6.93,9.91-9.73A2.31,2.31,0,0,0,22,7.67a21.67,21.67,0,0,0-9,7.92c-.07-.14-.12-.18-.11-.2,2.22-3.66,4.7-7,8.81-8.87,3-1.39,6-2.89,9.14-4A15.18,15.18,0,0,0,33.77.9l-2.7.33C37.25-.6,43.3-.6,49.11,2.69l.08-.27-1.07-.77L47,.86l.17-.23,6.77,4.86L57.37,2.7l.14.15L55.78,4.32l.07.12L58,3.36l0,.11-.57.43,0,.09c.56-.16,1.13-.29,1.67-.5a17.71,17.71,0,0,1,8.08-.76C69.58,3,72,3,74.33,3.22A40.25,40.25,0,0,1,79.09,4c4.64,1,7.64,4.32,10.47,7.73a45.17,45.17,0,0,1,3.35,5.43,29,29,0,0,0,1.62,2.46,16.53,16.53,0,0,1,2.61,5c1.12,3.34,2.39,6.63,3.32,10a48.75,48.75,0,0,1,1,6.64c.27,2.11.54,4.22.72,6.34.1,1.21,0,2.43,0,3.76-.15-1.54-.29-3-.44-4.42l-.25,0c.08.85.2,1.71.23,2.57.06,1.73.06,3.47.07,5.21a1.46,1.46,0,0,1-.18.63c-.08.16-.28.27-.33.44q-1.22,3.6-2.4,7.23c-1,3.12-1.94,6.27-1.49,9.64l-.42-2L96.46,73h-.07c.2-1.6.39-3.2.59-4.8l-.3-.07L93.59,75a6,6,0,0,1,2.46,4.93,7.59,7.59,0,0,1-2,5.49,5.51,5.51,0,0,1-3.7,1.9,1,1,0,0,0-1,1c-.14,1-.22,2-.32,2.93a14.45,14.45,0,0,1-.25,2l-.1-1.49-.31.89c-.3-2.06-.58-3.93-.85-5.8h-.25l-.42,2.41-.19,0a10.4,10.4,0,0,1,0-1.58c.15-1,.16-2-.74-2.64l-5.6,7.52c1,1.1,2,2.17,2.92,3.36a15.64,15.64,0,0,1,2.51,5.78,14.12,14.12,0,0,1,0,2.25,1.31,1.31,0,0,0,.47,1,4.25,4.25,0,0,1,1.75,2.3,16.6,16.6,0,0,0,1.51,3.52c.9,1.2.6,2.51.91,3.75.37,1.5.83,3,1.26,4.46a5.73,5.73,0,0,1,.23,1l-.68-1.3-.12,0,.32,1.49-.49-.66c0,.09-.08.16-.07.22.1.73.19,1.46.31,2.18a5.35,5.35,0,0,1-.7,3,2.27,2.27,0,0,0-.21,1.31,11.42,11.42,0,0,1-.11,5.2,1.18,1.18,0,0,0,.21.85c1.91,2.29,3.83,4.58,5.79,6.82,2.54,2.91,5,5.92,7.73,8.61a110.63,110.63,0,0,0,9.52,8.18,17.83,17.83,0,0,0,9.8,3.38c2.7.19,5.43.12,8,1.17.91.37,1.86.66,2.74,1.1.39.19,1,.79.89,1a2.22,2.22,0,0,1-1.11,1.23c-1.29.38-2.64.56-4,.83a13.35,13.35,0,0,1,1.52.74,3.85,3.85,0,0,1,.71.79c-.28.23-.55.64-.84.66-1.33.09-2.67.07-4,.08a3.49,3.49,0,0,0-1,0,10.81,10.81,0,0,1,1.38,1,5.7,5.7,0,0,1,.73,1.14c-.47.16-1,.53-1.38.45-1.77-.33-3.52-.77-5.27-1.22-1-.25-1.9-.6-3.08-1,1,1.71,1.85,3.2,2.69,4.7.54,1,1,2,1.53,3,.31.65,0,1.07-.72,1a1.87,1.87,0,0,1-.7-.19c-2.26-1.06-4.51-2.11-6.76-3.19-.63-.31-1.23-.71-1.85-1.06-2.46-1.35-3.62-3.63-4.41-6.17a3.33,3.33,0,0,0-.37-1,17.31,17.31,0,0,0-3.31-3.79c-5-3.65-10-7.34-14.93-11a2.07,2.07,0,0,0-.27-.11l-.11.86-.11-1.1a19.9,19.9,0,0,0-1.33,3.2,2.56,2.56,0,0,0,.65,1.76,17.69,17.69,0,0,1,2.48,5.45l-.59-1.2c0,2.29,2.11,2.06,3.05,3.13l-.33.27,1.84,1.26c-.32.55.54,1.38,3.81,3.6l-.69-.09c.18.25.31.44.45.62a5.16,5.16,0,0,1,1.1,4.45c-.2.84-.35,1.69-.55,2.52a3.28,3.28,0,0,1-.34.92c-.25.47-.73.9-.79,1.38a4.85,4.85,0,0,0,.52,1.7c-.79-.27-1.52-.42-1.79-1.15-.63-1.68-1.24-3.38-1.75-5.1A8.38,8.38,0,0,0,91.67,167c-.89-.64-1.75-1.31-2.63-2a7.46,7.46,0,0,0-1.64-1.21,6.88,6.88,0,0,0-2.1-.21,5.05,5.05,0,0,1-4-2.9,21.59,21.59,0,0,0-.9-2.47l.07,1.38a7.46,7.46,0,0,1-.64-4.12,2.78,2.78,0,0,0-.3-1.43,12.21,12.21,0,0,1-1.36-4.52,1.22,1.22,0,0,0-.22-.74l-.59,2.85a16.25,16.25,0,0,1,1.31-6.14,3.17,3.17,0,0,0-.1-2.73,5.25,5.25,0,0,1-.49-3.41.93.93,0,0,0-.11-.7c-.72-.89-1.48-1.74-2.29-2.68a1.92,1.92,0,0,0-.12.48,45,45,0,0,1-.88,8.73c-.44,3-.93,6.06-1.25,9.1a2.54,2.54,0,0,1-2.15,2.37c-1.39.4-1.39.42-1.51,1.85,0,.6-.08,1.21-.14,1.8s.12.73.61.75a1.24,1.24,0,0,1,1.21,1c1.39,4.57,2.82,9.14,4.19,13.71.91,3,2,6.06,2.58,9.16A114.81,114.81,0,0,1,80,201.5c.2,3.69.63,7.36.89,11,.2,2.65.34,5.31.41,8s0,5.52,0,8.29c0,1.47.19,3,.22,4.42s0,2.95-.06,4.42a1.57,1.57,0,0,1-.56.84A4.16,4.16,0,0,1,80,239c-1.52.71-1.55.71-1.28,2.4.87,5.59,1.81,11.18,2.62,16.78.32,2.22.37,4.47.48,6.72.07,1.52-.69,2-2,1.18A38,38,0,0,1,69,256.36c-1.85-2.44-3.62-5-5.25-7.55a38.85,38.85,0,0,1-2.35-5c-.22-.51-.41-.79-1-.76-1.62,0-1.83-.13-2-1.7q-1-12.6-2-25.21c-.6-7.67-1.16-15.34-1.74-23ZM34.31,151.3a9.67,9.67,0,0,0-.12-1.17c-.76-2.8-1.5-5.6-2.32-8.37a16,16,0,0,1-.77-6.47c.11-.92.21-1.84.32-2.87-1,.82-2,1.55-2.9,2.32-2.39,2-4.8,4-7.12,6.07a21.57,21.57,0,0,0-2.57,3c-.71.92-.59,1.55.39,2.19a12.25,12.25,0,0,0,2.31,1.24c2.22.86,4.45,1.7,6.71,2.43C30.19,150.28,32.19,150.73,34.31,151.3Zm38.05-50.82a1.85,1.85,0,0,0-.29.13L63.94,107c-.12.1-.35.26-.33.32.3.84.4,2.09,1,2.39a11,11,0,0,0,3.93.92,11.29,11.29,0,0,0,2.67-.37c1.5-.22,1.78,0,1.78,1.48a1.22,1.22,0,0,0,.82,1.22,15.89,15.89,0,0,1,6,6c.34.57.75,1.1,1.28,1.88.27-.72.66-1.23.56-1.63-.3-1.22-.78-2.4-1.2-3.63v2.25a6.87,6.87,0,0,1-.4-2.73A3.72,3.72,0,0,0,78.89,112,17.41,17.41,0,0,1,76.17,107c-.57-1.69-2-2.71-2.7-4.25l.39,1.75-.24.07C73.2,103.19,72.79,101.86,72.36,100.48ZM89.8,86.11c2.2.2,4.3-1.47,5.08-3.91.85-2.67.1-5.23-1.91-6.4-.82,1.09-1.62,2.21-3.28,2.35A16,16,0,0,1,89.8,86.11Zm-78.57-8C10.15,76,9.06,73.81,8,71.64c-.63,2.86.53,5.43.94,8.17Zm2.55,12a3.94,3.94,0,0,0,1.07-.18c.32-.17.74-.44.8-.73.28-1.31.44-2.64.66-4a3.85,3.85,0,0,0-.68-3.19A35.12,35.12,0,0,0,13.78,90.12Zm-.93,0,1-6.25c-.4.58-.81,1.12-1.16,1.69-.59,1-1.16,2-1.69,3a.8.8,0,0,0,.14.73A16.45,16.45,0,0,0,12.85,90.1ZM97.17,65.76c1.14-3.06,2.43-6.09,2.59-9.62a17.76,17.76,0,0,1-1.05,2.51C97.34,60.84,97.17,63.27,97.17,65.76ZM85.21,8q3.29,4,6.56,8.05A21,21,0,0,0,85.21,8ZM6.47,72.62c0-1.41,0-2.83,0-4.24a2,2,0,0,0-.17-.79c-.28-.55-.61-1.07-1-1.82C5.19,68.28,5.21,70.56,6.47,72.62Zm2.66,13A11.54,11.54,0,0,1,12.67,80l-.61-.65a2.45,2.45,0,0,0-.28-.16C10.57,81.2,9.29,83.2,9.13,85.66ZM16.45,89c1.59-.9,1.82-2.25.63-3.7Zm84.42-49a15.35,15.35,0,0,0-1.42-6.68ZM10.34,80.14a5.38,5.38,0,0,0-1.84,4ZM7,72.62c.37-1,.87-2.05-.18-3.2Zm81.6,82.93-.36.17,1.39,2.91.27-.12ZM4.66,65.92l-.21,0,.18,3.88h.2C4.77,68.51,4.71,67.21,4.66,65.92Z"/></g></g></svg>