<svg xmlns="http://www.w3.org/2000/svg" viewBox="0 0 308.81 521.81"><defs><style>.cls-1,.cls-5{fill:#fff;}.cls-1{stroke:#3d57a7;stroke-miterlimit:10;stroke-width:2.37px;}.cls-2{font-size:17.81px;font-family:FreightMicroProBold-Regular, FreightMicro Pro;}.cls-2,.cls-4,.cls-8{fill:#3d57a7;}.cls-3{letter-spacing:-0.05em;}.cls-5,.cls-8{font-size:18.94px;font-family:FreightMacroProLight-Italic, FreightMacro Pro;font-style:italic;}.cls-6{letter-spacing:0.02em;}.cls-7{letter-spacing:0.01em;}.cls-9{letter-spacing:-0.03em;}.cls-10{letter-spacing:0.01em;}.cls-11{letter-spacing:-0.04em;}.cls-12{letter-spacing:0.02em;}.cls-13{letter-spacing:0.01em;}.cls-14{letter-spacing:-0.02em;}.cls-15{letter-spacing:-0.01em;}.cls-16{letter-spacing:0.01em;}.cls-17{letter-spacing:-0.05em;}.cls-18{letter-spacing:-0.1em;}.cls-19{letter-spacing:0.04em;}.cls-20{letter-spacing:-0.04em;}.cls-21{letter-spacing:-0.02em;}.cls-22{letter-spacing:0.02em;}.cls-23{letter-spacing:0em;}.cls-24{letter-spacing:0.03em;}</style></defs><g id="Layer_2" data-name="Layer 2"><g id="Layer_1-2" data-name="Layer 1"><rect class="cls-1" x="1.19" y="1.19" width="306.43" height="519.44" rx="12"/><text class="cls-2" transform="translate(19.66 136.96)">this app enables authentication<tspan x="67.5" y="21.37">using </tspan><tspan class="cls-3" x="118.39" y="21.37">F</tspan><tspan x="128.73" y="21.37">ortmatic</tspan></text><rect class="cls-4" x="17.27" y="357.37" width="274.26" height="55.21" rx="12"/><text class="cls-5" transform="translate(119.93 389.98)">con<tspan class="cls-6" x="27.8" y="0">t</tspan><tspan class="cls-7" x="34.52" y="0">i</tspan><tspan x="39.69" y="0">nue</tspan></text><text class="cls-8" transform="translate(18.65 209.87)"><tspan class="cls-9">y</tspan><tspan x="8.79" y="0">our phone or </tspan><tspan class="cls-10" x="114.81" y="0">e</tspan><tspan x="123.67" y="0">mail</tspan><tspan class="cls-11" x="158.32" y="0"> </tspan><tspan class="cls-12" x="162.22" y="0">w</tspan><tspan x="175.38" y="0">ill </tspan><tspan class="cls-13" x="194.56" y="0">b</tspan><tspan x="204.16" y="0">e used</tspan><tspan class="cls-9" x="253.64" y="0"> </tspan><tspan class="cls-14" x="257.73" y="0">t</tspan><tspan x="263.69" y="0">o</tspan><tspan class="cls-12" x="0" y="22.72">s</tspan><tspan x="7.71" y="22.72">i</tspan><tspan class="cls-12" x="12.69" y="22.72">g</tspan><tspan class="cls-15" x="22.23" y="22.72">n</tspan><tspan x="32.38" y="22.72">-up and l</tspan><tspan class="cls-16" x="102.54" y="22.72">o</tspan><tspan class="cls-12" x="111.66" y="22.72">g</tspan><tspan class="cls-7" x="121.21" y="22.72">i</tspan><tspan class="cls-12" x="126.38" y="22.72">n</tspan><tspan class="cls-17" x="137" y="22.72">.</tspan><tspan class="cls-18" x="0" y="68.17">Y</tspan><tspan x="9.81" y="68.17">our</tspan><tspan class="cls-11" x="37.11" y="68.17"> </tspan><tspan class="cls-19" x="41.01" y="68.17">f</tspan><tspan x="47.77" y="68.17">unds</tspan><tspan class="cls-20" x="85.78" y="68.17"> </tspan><tspan class="cls-12" x="89.68" y="68.17">w</tspan><tspan x="102.84" y="68.17">ill </tspan><tspan class="cls-16" x="122.02" y="68.17">b</tspan><tspan x="131.62" y="68.17">e safegua</tspan><tspan class="cls-21" x="206.26" y="68.17">r</tspan><tspan x="213.88" y="68.17">ded b</tspan><tspan class="cls-11" x="256.37" y="68.17">y</tspan><tspan x="0" y="90.89">secu</tspan><tspan class="cls-22" x="34.82" y="90.89">r</tspan><tspan class="cls-23" x="43.19" y="90.89">i</tspan><tspan class="cls-24" x="48.17" y="90.89">t</tspan><tspan class="cls-11" x="54.99" y="90.89">y</tspan><tspan x="63.58" y="90.89" xml:space="preserve"> compla</tspan><tspan class="cls-7" x="125.16" y="90.89">i</tspan><tspan x="130.33" y="90.89">nt s</tspan><tspan class="cls-12" x="159" y="90.89">e</tspan><tspan class="cls-24" x="167.86" y="90.89">r</tspan><tspan class="cls-12" x="176.42" y="90.89">v</tspan><tspan x="185.53" y="90.89">ices</tspan></text><path class="cls-4" d="M1.19,8.31S2.54.89,8.31,1.19s288.19,0,288.19,0S307.89.3,307.62,8.31s-.11,50.76-.11,50.76H1.19Z"/><circle class="cls-1" cx="155.37" cy="59.07" r="33.54"/><path class="cls-4" d="M138.42,59V43.13c0-1,0-1,1-1h31.82c1,0,1,0,1,1,0,2.17,0,4.33,0,6.5,0,.76-.23,1-1,1-7.76,0-15.51,0-23.27,0-1.2,0-1.2,0-1.2,1.2V74.91c0,1.1,0,1.1-1.12,1.1-2.11,0-4.23,0-6.35,0-.77,0-1-.19-1-1C138.44,69.7,138.42,64.37,138.42,59Z"/><path class="cls-4" d="M163.92,59.07c2.51,0,5,0,7.53,0,.69,0,.89.21.88.89,0,2.8,0,5.6,0,8.39A8.13,8.13,0,0,1,164.92,76c-1,.06-1.07.05-1.07-1,0-2.19,0-4.38,0-6.58,0-.67-.19-.91-.89-.9-2.24,0-4.49,0-6.74,0-.59,0-.83-.17-.83-.79q0-3.45,0-6.9c0-.63.25-.8.85-.8C158.8,59.09,161.36,59.07,163.92,59.07Z"/></g></g></svg>